<svg xmlns="http://www.w3.org/2000/svg" width="187" height="186" fill="none"><g clip-path="url(#a)"><path fill="#FB6BB3" d="M130.745 0H56.812C24.904 0 0 24.904 0 56.033v73.934C0 161.096 24.904 186 56.033 186h73.934C161.096 186 186 161.096 186 129.967V56.033C186.778 24.904 161.874 0 130.745 0Zm38.134 130.745c0 21.012-17.122 38.912-38.912 38.912H56.033c-21.012 0-38.912-17.121-38.912-38.912V56.812c0-21.013 17.122-38.912 38.912-38.912h73.934c21.012 0 38.912 17.12 38.912 38.912v73.933Z"/></g><defs><clipPath id="a"><path fill="#fff" d="M0 0h187v186H0z"/></clipPath></defs></svg>