<svg width="221" height="186" viewBox="0 0 221 186" fill="none" xmlns="http://www.w3.org/2000/svg">
<path d="M206.88 1.49967L10.2751 77.4881C-2.99276 82.3127 -2.99276 90.7559 7.86273 93.1682L57.3155 108.848L76.6141 166.744C79.0265 172.775 77.8203 175.187 83.8511 175.187C88.6758 175.187 91.0881 172.775 93.5004 170.363C94.7066 169.157 105.562 158.301 117.624 146.239L168.283 183.631C177.932 188.455 183.963 186.043 186.375 175.187L220.148 17.1798C223.766 3.912 215.323 -3.32499 206.88 1.49967ZM181.55 37.6846L87.4696 123.322L83.8511 163.126L64.5525 105.23L175.52 35.2723C180.344 31.6538 185.169 34.0661 181.55 37.6846Z" fill="#FB6BB3"/>
</svg>
