<svg xmlns="http://www.w3.org/2000/svg" width="320" height="186" fill="none"><path fill="#FB6BB3" d="M193.23 89.278c-5.835-2.194-5.835-10.573-6.197-16.408-1.459-20.785 5.835-52.516-2.918-66.007-6.196-8.029-36.107-7.293-54.336-6.196-5.111.735-11.308 1.82-15.684 4.014-4.376 2.194-8.753 5.835-8.753 9.114 0 4.739 10.947 4.015 14.95 10.212 4.376 6.57 4.376 20.784 4.376 32.454 0 13.491-2.194 31.37-7.656 32.093-8.39.362-13.129-8.029-17.505-14.226-8.752-12.032-17.505-26.993-24.075-41.58-3.28-7.656-5.112-16.047-9.85-19.326-7.294-5.111-20.422-5.473-33.19-5.111-11.67.361-28.451-1.097-31.73 5.835-2.556 7.655 2.917 14.949 5.834 21.157 14.95 32.455 30.996 60.907 50.695 87.888 18.24 25.161 35.373 45.222 68.924 55.795 9.488 2.917 51.057 11.308 59.447 0 2.918-4.377 2.194-14.226 3.653-21.52 1.459-7.294 3.28-14.588 10.212-14.949 5.835-.362 9.114 4.738 12.767 8.391 4.014 4.014 7.293 7.293 10.211 10.946 6.932 6.932 14.226 16.408 22.978 20.061 12.032 5.111 30.634 3.653 48.14 2.917 14.225-.361 24.437-3.279 25.534-11.67.735-6.57-6.571-16.046-10.947-21.519-10.946-13.491-16.046-17.505-28.451-29.911-5.474-5.473-12.406-11.308-12.406-17.867-.362-4.014 2.918-7.655 5.835-11.67 12.767-18.964 25.534-32.454 37.205-52.153 3.279-5.836 10.946-19.326 8.029-25.896-3.28-7.294-21.52-5.112-32.828-5.112-14.588 0-33.552-1.097-37.205 1.82-6.932 4.739-9.849 12.406-13.129 19.7-7.293 16.781-17.143 33.913-27.354 46.68-3.653 4.377-10.573 13.49-14.588 12.032l.012.012Z"/></svg>