<svg xmlns="http://www.w3.org/2000/svg" width="912" height="242" fill="none"><path fill="#fff" d="M97.433 47.972V78.73H38.854V189H.843V47.972h96.59Zm23.849 193.914V47.972h38.562V71.66h1.745c1.713-3.795 4.192-7.651 7.437-11.569 3.305-3.978 7.59-7.284 12.854-9.916 5.325-2.693 11.936-4.04 19.832-4.04 10.283 0 19.771 2.694 28.462 8.08 8.692 5.325 15.64 13.375 20.843 24.148 5.202 10.711 7.804 24.147 7.804 40.307 0 15.731-2.54 29.013-7.621 39.847-5.019 10.773-11.875 18.945-20.566 24.515-8.631 5.509-18.302 8.263-29.014 8.263-7.59 0-14.048-1.254-19.373-3.764-5.264-2.51-9.579-5.662-12.946-9.457-3.367-3.856-5.937-7.743-7.712-11.661h-1.194v75.473h-39.113Zm38.287-123.4c0 8.386 1.163 15.7 3.489 21.944 2.326 6.243 5.692 11.109 10.099 14.598 4.407 3.428 9.763 5.142 16.068 5.142 6.366 0 11.752-1.744 16.159-5.233 4.408-3.551 7.743-8.447 10.008-14.691 2.326-6.305 3.489-13.558 3.489-21.76 0-8.141-1.132-15.303-3.397-21.485-2.265-6.182-5.601-11.018-10.008-14.507-4.407-3.489-9.824-5.233-16.251-5.233-6.366 0-11.752 1.683-16.16 5.05-4.346 3.366-7.681 8.14-10.007 14.323-2.326 6.182-3.489 13.466-3.489 21.852Zm165.542 73.177c-8.997 0-17.016-1.561-24.055-4.683-7.039-3.183-12.609-7.865-16.711-14.048-4.039-6.243-6.059-14.017-6.059-23.321 0-7.835 1.438-14.415 4.315-19.74 2.877-5.325 6.794-9.61 11.752-12.854 4.958-3.244 10.59-5.693 16.894-7.345 6.366-1.653 13.038-2.816 20.016-3.489 8.202-.857 14.813-1.653 19.832-2.388 5.019-.795 8.661-1.958 10.926-3.489 2.265-1.53 3.397-3.795 3.397-6.794v-.55c0-5.816-1.836-10.315-5.509-13.498-3.611-3.183-8.753-4.774-15.425-4.774-7.039 0-12.639 1.56-16.802 4.683-4.162 3.06-6.916 6.916-8.263 11.568l-36.175-2.938c1.836-8.57 5.447-15.976 10.834-22.22 5.386-6.304 12.334-11.14 20.842-14.506 8.569-3.428 18.485-5.142 29.748-5.142 7.835 0 15.333.919 22.495 2.755 7.223 1.836 13.619 4.682 19.189 8.539 5.632 3.856 10.069 8.814 13.313 14.874 3.245 5.998 4.867 13.19 4.867 21.576V189h-37.094v-19.557h-1.102c-2.264 4.407-5.294 8.294-9.089 11.661-3.795 3.305-8.355 5.907-13.681 7.804-5.325 1.836-11.477 2.755-18.455 2.755Zm11.202-26.994c5.754 0 10.834-1.132 15.241-3.397 4.407-2.326 7.866-5.448 10.375-9.365 2.51-3.918 3.765-8.356 3.765-13.314v-14.965c-1.224.795-2.908 1.53-5.05 2.203-2.081.612-4.438 1.194-7.07 1.745-2.632.489-5.264.948-7.896 1.377-2.632.367-5.019.704-7.162 1.01-4.59.673-8.6 1.744-12.027 3.213-3.428 1.469-6.091 3.459-7.988 5.968-1.898 2.449-2.847 5.509-2.847 9.182 0 5.325 1.929 9.396 5.785 12.211 3.917 2.755 8.875 4.132 14.874 4.132Zm166.048 72.259V.962h39.021v235.966h-39.021Zm0-45.174c-10.834 0-20.72-1.744-29.657-5.233-8.936-3.55-16.649-8.539-23.137-14.966-6.488-6.488-11.508-14.17-15.058-23.046-3.55-8.936-5.325-18.76-5.325-29.472 0-10.834 1.775-20.69 5.325-29.565 3.55-8.936 8.57-16.618 15.058-23.045 6.488-6.489 14.201-11.477 23.137-14.966 8.937-3.55 18.823-5.325 29.657-5.325h7.253v145.618h-7.253Zm0-30.482h4.315V76.618h-4.315c-5.264 0-9.947 1.102-14.048 3.306-4.101 2.203-7.559 5.233-10.375 9.09-2.816 3.794-4.958 8.263-6.427 13.404-1.408 5.142-2.112 10.681-2.112 16.619 0 7.835 1.286 14.966 3.856 21.393 2.571 6.366 6.336 11.446 11.294 15.241 4.958 3.734 10.895 5.601 17.812 5.601Zm39.021 30.482h-7.253V46.136h7.253c10.834 0 20.72 1.775 29.657 5.325 8.936 3.489 16.649 8.477 23.137 14.966 6.488 6.427 11.508 14.109 15.058 23.045 3.55 8.876 5.325 18.731 5.325 29.565 0 10.712-1.775 20.536-5.325 29.472-3.55 8.876-8.57 16.558-15.058 23.046-6.488 6.427-14.201 11.416-23.137 14.966-8.937 3.489-18.823 5.233-29.657 5.233Zm0-30.482c5.264 0 9.947-1.071 14.048-3.214 4.101-2.203 7.559-5.233 10.375-9.089 2.816-3.857 4.958-8.325 6.427-13.405 1.469-5.142 2.204-10.651 2.204-16.527 0-7.896-1.316-15.027-3.948-21.393-2.571-6.427-6.305-11.538-11.202-15.333s-10.865-5.693-17.904-5.693h-4.315v84.654h4.315ZM677.521 137.4l50.774-89.428h38.563V189h-37.277V99.296L678.99 189h-38.838V47.972h37.369V137.4ZM784.05 78.73V47.972h127.807V78.73h-45.449V189h-37.277V78.73H784.05Z"/></svg>